:SAMPLES-PER-SECOND 30
:FULLY-SPECIFIED
:DEGREES
262
root  10.2072 38.6775 1.55249 6.48962 54.5207 6.34823
RightUpLeg  -25.5439 -15.9576 3.3875
RightLeg  24.9533 -0.0477959 -9.14966
RightFoot  -2.95236 0.270391 -2.98842
RightToes  5.82077e-011 -3.18055e-015 -2.98177e-016
Spine  13.5393 0.143386 -5.87307
Spine1  -6.89718 -0.87615 4.98379
HEad  -6.40083 -5.22563 6.31991
LeftShoulder1  -3.88251e-019 9.70628e-020 -3.87848e-018
LeftArm  -5.82229 47.4014 -60.3725
LeftForeArm  -29.0878 -37.5744 7.26857
LeftHand  -0.763679 -4.2038 9.85604
RightShoulder  7.18535 10.4625 33.9372
RightArm  25.4059 -44.0084 16.2818
RightForeArm  0.281332 31.3857 -16.9965
RightHand  -1.37461 7.68134 -12.198
LeftUpLeg  -0.666114 5.37296 -1.10121
LeftLeg  16.7548 12.1708 8.47354
LeftFoot  -12.1277 0.0560083 -10.5616
LeftToes  7.79675e-011 9.80247e-012 -3.28897e-011
263
root  10.6417 38.5617 1.85339 5.7596 51.1398 6.4363
RightUpLeg  -25.4375 -17.4212 4.3744
RightLeg  26.247 -1.83817 -10.5615
RightFoot  -5.35049 0.262924 -3.65434
RightToes  5.82077e-011 -3.18055e-015 -2.98177e-016
Spine  13.0055 0.10038 -7.07756
Spine1  -6.11054 -1.19761 6.10624
HEad  -7.18492 -3.4824 6.24005
LeftShoulder1  -3.88251e-019 9.70628e-020 -3.87848e-018
LeftArm  -4.7033 47.832 -58.6705
LeftForeArm  -28.6858 -36.5414 6.96947
LeftHand  -0.898906 -5.33892 10.3231
RightShoulder  7.33915 10.5203 34.5969
RightArm  23.3601 -43.4033 17.7188
RightForeArm  0.424803 30.5606 -16.5148
RightHand  -1.582 7.40952 -14.2921
LeftUpLeg  2.05348 5.6198 -1.32162
LeftLeg  16.3734 14.7821 8.20171
LeftFoot  -12.648 0.0124366 -12.0143
LeftToes  7.79675e-011 9.80247e-012 -3.28897e-011
264
root  11.1122 38.4565 2.24511 4.95728 47.9651 6.02224
RightUpLeg  -25.0147 -18.0197 5.11556
RightLeg  27.3333 -1.84813 -11.0138
RightFoot  -7.99991 0.186081 -3.5811
RightToes  5.82077e-011 -3.18055e-015 -2.98177e-016
Spine  12.1438 -0.268745 -6.35517
Spine1  -5.3866 -1.46748 5.53561
HEad  -7.48511 -2.56617 5.98297
LeftShoulder1  -3.88251e-019 9.70628e-020 -3.87848e-018
LeftArm  -3.04568 48.1548 -57.306
LeftForeArm  -28.2851 -33.0147 6.03672
LeftHand  -0.984077 -5.40111 11.2286
RightShoulder  7.39445 10.5474 34.8182
RightArm  21.7557 -44.3015 18.7019
RightForeArm  0.239957 29.6798 -15.9964
RightHand  -1.67529 7.04174 -15.5455
LeftUpLeg  4.51801 5.49194 -1.47297
LeftLeg  15.8911 17.9958 8.33042
LeftFoot  -12.9585 -0.0187118 -13.4721
LeftToes  7.79675e-011 9.80247e-012 -3.28897e-011
265
root  11.5965 38.3321 2.77272 4.31997 45.3509 5.14763
RightUpLeg  -24.5895 -17.2569 5.63179
RightLeg  28.6134 -0.33445 -10.6708
RightFoot  -10.3808 0.0955831 -2.6385
RightToes  5.82077e-011 -3.18055e-015 -2.98177e-016
Spine  11.2115 -0.762473 -4.88853
Spine1  -5.37119 -1.74884 4.92415
HEad  -6.86984 -2.43242 5.03122
LeftShoulder1  -3.88251e-019 9.70628e-020 -3.87848e-018
LeftArm  -2.84456 48.8022 -56.7897
LeftForeArm  -27.0382 -28.034 4.15533
LeftHand  -0.900637 -3.93079 11.9205
RightShoulder  7.39512 10.5458 34.8251
RightArm  22.6102 -45.6661 18.1467
RightForeArm  -0.936467 28.6019 -15.3335
RightHand  -1.62122 6.78575 -15.3557
LeftUpLeg  6.15148 6.4248 -1.1246
LeftLeg  15.9262 20.1624 9.05018
LeftFoot  -12.9699 -0.0203878 -13.9721
LeftToes  7.79675e-011 9.80247e-012 -3.28897e-011
266
root  12.0541 38.1843 3.44637 3.65452 43.2227 4.00821
RightUpLeg  -24.1031 -15.8414 6.24824
RightLeg  30.1912 1.37258 -10.2331
RightFoot  -12.2854 0.0496951 -1.74873
RightToes  5.82077e-011 -3.18055e-015 -2.98177e-016
Spine  10.3655 -1.21554 -4.05516
Spine1  -5.51064 -2.21365 5.77601
HEad  -5.93332 -2.48844 3.62867
LeftShoulder1  -3.88251e-019 9.70628e-020 -3.87848e-018
LeftArm  -8.28117 50.0743 -56.7055
LeftForeArm  -19.8266 -23.0668 0.247373
LeftHand  -0.661068 -1.79891 11.4151
RightShoulder  7.41412 10.541 34.9319
RightArm  25.4608 -46.1961 16.5643
RightForeArm  -1.48535 26.6129 -14.2761
RightHand  -1.49253 6.81719 -14.1295
LeftUpLeg  7.00417 9.25315 0.032894
LeftLeg  16.9988 19.0324 10.369
LeftFoot  -12.8957 -0.010312 -15.3811
LeftToes  7.79675e-011 9.80247e-012 -3.28897e-011
267
root  12.4463 38.0606 4.2023 2.90351 41.3568 2.78516
RightUpLeg  -23.3648 -15.2858 7.27904
RightLeg  31.4415 2.76689 -9.76923
RightFoot  -13.8958 0.0308998 -1.76162
RightToes  5.82077e-011 -3.18055e-015 -2.98177e-016
Spine  9.43023 -1.69906 -4.02525
Spine1  -4.92321 -2.93597 8.08413
HEad  -5.41016 -2.35642 2.59585
LeftShoulder1  -3.88251e-019 9.70628e-020 -3.87848e-018
LeftArm  -14.2099 51.9774 -57.0323
LeftForeArm  -11.4208 -18.5638 -2.32753
LeftHand  -0.438495 -0.312624 9.70088
RightShoulder  7.49591 10.5634 35.2964
RightArm  26.4462 -45.6387 15.4872
RightForeArm  1.56352 23.1284 -12.1439
RightHand  -1.42085 7.02324 -13.2471
LeftUpLeg  6.8806 11.6475 1.40504
LeftLeg  19.8778 16.5714 12.7115
LeftFoot  -12.0877 0.152598 -19.7292
LeftToes  7.79675e-011 9.80247e-012 -3.28897e-011
268
root  12.7709 37.9734 4.96717 2.15119 39.6585 1.51927
RightUpLeg  -22.2895 -16.0375 8.58794
RightLeg  31.9597 4.37969 -8.8485
RightFoot  -15.5333 -0.00134119 -2.42256
RightToes  5.82077e-011 -3.18055e-015 -2.98177e-016
Spine  8.51298 -2.28657 -3.90734
Spine1  -3.86133 -3.71171 10.4992
HEad  -5.17793 -2.25251 2.30271
LeftShoulder1  -3.88251e-019 9.70628e-020 -3.87848e-018
LeftArm  -17.2431 54.3764 -58.0679
LeftForeArm  -5.87303 -15.2469 -2.81892
LeftHand  -0.335873 0.0765809 8.02846
RightShoulder  7.57899 10.5902 35.6559
RightArm  18.8288 -44.772 15.5993
RightForeArm  12.3835 18.173 -7.65219
RightHand  -1.47765 7.11816 -13.664
LeftUpLeg  4.91341 10.2319 2.30817
LeftLeg  26.5033 17.6462 17.3052
LeftFoot  -8.82698 0.893806 -24.0973
LeftToes  7.79675e-011 9.80247e-012 -3.28897e-011
269
root  13.069 37.9247 5.72611 1.44047 37.9386 0.373878
RightUpLeg  -20.6769 -17.0585 9.67019
RightLeg  31.7468 6.37537 -7.41975
RightFoot  -17.12 -0.0520855 -3.12194
RightToes  5.82077e-011 -3.18055e-015 -2.98177e-016
Spine  8.0189 -2.72331 -3.28348
Spine1  -3.10937 -4.15327 11.8088
HEad  -4.75714 -2.47322 2.3838
LeftShoulder1  -3.88251e-019 9.70628e-020 -3.87848e-018
LeftArm  -19.3363 57.168 -60.0324
LeftForeArm  -3.38986 -13.4147 -2.52975
LeftHand  -0.313965 -0.0573161 7.29553
RightShoulder  7.58923 10.5827 35.7241
RightArm  5.46235 -44.1781 16.8027
RightForeArm  24.7552 11.0257 -4.06534
RightHand  -1.54489 6.83735 -14.6
LeftUpLeg  1.18722 8.87047 3.05444
LeftLeg  35.6947 18.2049 24.2384
LeftFoot  -2.47038 2.11035 -22.9001
LeftToes  7.79675e-011 9.80247e-012 -3.28897e-011
270
root  13.3778 37.9166 6.45067 0.587806 36.0326 -0.730577
RightUpLeg  -18.6322 -17.1584 10.4453
RightLeg  31.2619 8.0244 -6.18431
RightFoot  -18.2362 -0.0926566 -3.44473
RightToes  5.82077e-011 -3.18055e-015 -2.98177e-016
Spine  7.98074 -2.86321 -1.80969
Spine1  -2.47813 -4.10222 11.9551
HEad  -4.18279 -3.01728 2.50468
LeftShoulder1  -3.88251e-019 9.70628e-020 -3.87848e-018
LeftArm  -22.0118 60.0788 -62.9468
LeftForeArm  -3.54254 -13.1398 -2.27048
LeftHand  -0.302437 -0.245999 6.78726
RightShoulder  7.60218 10.5824 35.7898
RightArm  -0.532539 -43.5518 18.6737
RightForeArm  25.1216 2.87147 -5.28226
RightHand  -1.38587 5.78118 -14.294
LeftUpLeg  -3.48814 7.77179 3.66962
LeftLeg  44.7373 14.753 29.5568
LeftFoot  3.43481 2.31372 -15.7186
LeftToes  7.79675e-011 9.80247e-012 -3.28897e-011
271
root  13.72 37.9711 7.15278 -0.112163 33.9757 -1.42026
RightUpLeg  -16.3938 -16.249 10.7162
RightLeg  30.5701 8.88298 -5.48437
RightFoot  -18.9447 -0.107471 -3.36173
RightToes  5.82077e-011 -3.18055e-015 -2.98177e-016
Spine  7.85962 -2.73556 0.11465
Spine1  -1.42003 -3.64403 11.0663
HEad  -3.73489 -3.79517 2.75283
LeftShoulder1  -3.88251e-019 9.70628e-020 -3.87848e-018
LeftArm  -24.8151 62.6895 -66.4173
LeftForeArm  -5.22951 -14.061 -2.18485
LeftHand  -0.259854 -0.524012 5.56148
RightShoulder  7.72233 10.6476 36.2458
RightArm  -4.90668 -42.6449 19.4944
RightForeArm  24.0344 -2.57888 -6.83215
RightHand  -0.926403 3.38481 -12.0718
LeftUpLeg  -8.18938 6.67995 3.57259
LeftLeg  51.5991 8.08073 29.9226
LeftFoot  4.88713 1.347 -8.27889
LeftToes  7.79675e-011 9.80247e-012 -3.28897e-011
272
root  14.1127 38.0871 7.86868 -0.310069 31.9534 -1.65128
RightUpLeg  -14.1915 -14.766 10.5942
RightLeg  29.4399 9.24594 -5.08513
RightFoot  -19.4544 -0.0997601 -2.97712
RightToes  5.82077e-011 -3.18055e-015 -2.98177e-016
Spine  7.36226 -2.48683 2.3945
Spine1  -0.241605 -2.90463 9.2346
HEad  -3.32542 -4.77629 3.17054
LeftShoulder1  -3.88251e-019 9.70628e-020 -3.87848e-018
LeftArm  -27.3207 64.8788 -69.8052
LeftForeArm  -6.847 -15.2205 -2.23315
LeftHand  -0.20224 -0.80896 4.14598
RightShoulder  7.86355 10.7242 36.7777
RightArm  -6.0664 -42.1996 19.242
RightForeArm  24.43 -4.20601 -7.52888
RightHand  -0.496352 0.913351 -9.009
LeftUpLeg  -12.7259 5.48349 2.73913
LeftLeg  56.5309 2.70145 28.177
LeftFoot  3.04583 0.703277 -4.93445
LeftToes  7.79675e-011 9.80247e-012 -3.28897e-011
